<?xml version="1.0" encoding="utf-8"?>
<!-- Generator: Adobe Illustrator 27.2.0, SVG Export Plug-In . SVG Version: 6.00 Build 0)  -->
<svg version="1.1" xmlns="http://www.w3.org/2000/svg" xmlns:xlink="http://www.w3.org/1999/xlink" x="0px" y="0px"
	 viewBox="0 0 293.81 285.49" style="enable-background:new 0 0 293.81 285.49;" xml:space="preserve">
<style type="text/css">
	.st0{fill:#231F20;}
	.st1{fill:#231F20;stroke:#231F20;stroke-miterlimit:10;}
	.st2{fill:#FFFFFF;}
	.st3{stroke:#FFFFFF;stroke-width:0.25;stroke-miterlimit:10;}
	.st4{fill:#73383E;}
	.st5{fill:#D1C7BD;stroke:#FFFFFF;stroke-width:0.5;stroke-miterlimit:10;}
	.st6{fill:#D1C7BD;}
	.st7{fill:#73383E;stroke:#FFFFFF;stroke-width:0.5;stroke-miterlimit:10;}
	.st8{stroke:#FFFFFF;stroke-width:0.5;stroke-miterlimit:10;}
	.st9{font-family:'Abygaer';}
	.st10{font-size:24px;}
	.st11{letter-spacing:2;}
</style>
<g id="cover_page">
</g>
<g id="sketches">
</g>
<g id="_x35__W_x27_s">
</g>
<g id="moodboard">
</g>
<g id="vector_logos">
</g>
<g id="guide">
</g>
<g id="bw_ver_1">
</g>
<g id="color_ver_1">
</g>
<g id="bw_ver_2">
</g>
<g id="color_ver_2">
</g>
<g id="bw_ver_3">
</g>
<g id="color_ver_3">
</g>
<g id="final_logo">
	<path class="st8" d="M219.71,186.16l-7.97-13.89c0,0-0.57-1.27-2.4-1.44c-1.83-0.17-7.09-0.6-7.09-0.6s-0.99-0.02-1.6,0.82
		s-2.69,3.97-2.69,3.97s-0.8,0.85-0.07,2.15c0.73,1.3,3.03,5.66,3.03,5.66s0.53,1.8,3.08,2.12c2.55,0.32,15.26,1.86,15.26,1.86
		l-11.39-7.59c0,0-0.62-0.35-1.28-0.21c0,0-1.23,0.12-1.44-1.04c0,0-0.35-1.12,1.02-1.43c0,0,1.03-0.27,1.47,1.01
		c0,0,0.14,0.71,0.6,1.02L219.71,186.16z"/>
	<text transform="matrix(1 0 0 1 66.5742 78.7377)" class="st9 st10">S</text>
	<text transform="matrix(1 0 0 1 64.7549 100.7816)" class="st9 st10">O</text>
	<text transform="matrix(1 0 0 1 66.5742 126.193)" class="st9 st10">N</text>
	<text transform="matrix(1 0 0 1 66.5742 150.943)" class="st9 st10">D</text>
	<text transform="matrix(1 0 0 1 66.5742 174.9344)" class="st9 st10">E</text>
	<text transform="matrix(1 0 0 1 66.5742 197.3606)" class="st9 st10">R</text>
	<text transform="matrix(1 0 0 1 98.6537 227.2084)" class="st9 st10 st11">DESIGNS</text>
	<g>
		<path d="M99.15,227.18c-7.5,0.28-14.99,2.52-22.57,1.07c-9.03-1.76-14.12-9.73-8.61-17.92c2.41-4.1,7.2-8.1,3.47-12.97
			c4.65,4.62,0.2,9.31-2.11,13.73c-4.41,7.43-0.1,13.55,7.65,15.32C84.23,228.04,91.75,226.24,99.15,227.18L99.15,227.18z"/>
	</g>
	<g>
		<g>
			<path class="st0" d="M226.76,176.19c-3.01-2.77-6.96-4.46-9.08-8.17c-2.1-3.58-2.24-8.38,0.02-11.89
				c-1.45,3.72-1.14,7.97,0.85,11.39C220.5,171.02,224.41,172.96,226.76,176.19L226.76,176.19z"/>
		</g>
		<g>
			<path d="M218.77,185.92c4.61,1.05,10.57,1.02,9.76-5.33c-0.24-1.53-0.85-3.04-1.77-4.39c1.22,1.1,2.13,2.58,2.53,4.24
				C230.63,187.48,223.79,188.46,218.77,185.92L218.77,185.92z"/>
		</g>
		<g>
			<path d="M217.53,156.52c0.74-2.29,2.56-4.28,4.8-5.18C220.45,152.86,218.91,154.54,217.53,156.52L217.53,156.52z"/>
		</g>
	</g>
	<g>
		<path d="M155.62,126.62c2.45,3.83,3.96,7.95,4.51,12.33c0.56,4.39,0.25,8.59-0.94,12.6c-1.18,4.01-3.11,7.79-5.78,11.33
			c-2.67,3.54-5.95,6.52-9.83,8.92c-5.08,3.12-10.72,4.69-16.91,4.71c-6.2,0.02-12.05-1.38-17.55-4.21
			c-5.5-2.83-9.93-6.7-13.27-11.6c-2.54-3.7-4.1-7.54-4.68-11.53c-0.58-3.99-0.35-7.75,0.7-11.3c1.05-3.54,2.72-7.06,5.01-10.56
			c2.29-3.5,4.85-6.64,7.65-9.43c2.81-2.79,4.74-4.33,8.08-6.78c0.97-0.69,1.32,0.09,1.24,1.1c-0.14,1.75-1.44,2.66-2.67,3.68
			c-3.82,3.16-7.24,7.08-9.95,11.22c-1.76,2.7-3.04,5.42-3.84,8.16c-0.8,2.74-1.04,5.68-0.7,8.83c0.33,3.14,1.35,6.25,3.04,9.33
			c2.81,4.64,6.46,8.46,10.96,11.47c4.5,3.01,9.43,4.91,14.78,5.72c4.55,0.71,8.86,0.43,12.94-0.84s7.56-3.5,10.46-6.69
			c2.9-3.19,4.81-7.05,5.75-11.6c1.83-8.78-1.56-17.92-10.16-27.41c-7.18-7.35-15-13.93-23.47-19.72c-0.85-0.62-2.38-1.69-4.61-3.21
			c-2.23-1.51-3.97-2.74-5.21-3.68c-1.25-0.94-2.67-2.17-4.28-3.71c-1.6-1.54-2.88-3.04-3.81-4.51c-2.41-3.97-3.14-7.99-2.21-12.07
			c0.94-4.08,2.83-7.79,5.68-11.13c2.85-3.34,6.15-5.88,9.89-7.62c6.11-2.85,11.67-3.51,16.68-1.97c5.01,1.54,9.25,4.46,12.7,8.76
			c3.45,4.3,5.85,9.44,7.19,15.41c0.22,0.98-0.51,2.16-2.21,3.54c-1.6,1.29-2.7,1.69-3.28,1.2c-0.09-0.13-0.16-0.27-0.2-0.4
			c-0.62-2.72-1.46-5.29-2.51-7.72c-1.05-2.43-2.37-4.72-3.98-6.89c-1.61-2.16-3.39-3.98-5.35-5.45c-1.96-1.47-4.26-2.52-6.89-3.14
			c-2.63-0.62-5.39-0.69-8.29-0.2c-2.36,0.45-4.52,1.27-6.49,2.47c-1.96,1.2-3.52,2.67-4.68,4.41s-1.97,3.6-2.44,5.58
			c-0.47,1.98-0.41,4.06,0.17,6.22c0.58,2.16,1.69,4.18,3.34,6.05c2.36,2.81,5.24,5.58,8.62,8.32c3.39,2.74,6.71,5.24,9.96,7.49
			c3.25,2.25,6.51,4.56,9.76,6.92c3.25,2.36,6.4,5.05,9.43,8.06C151.02,120.1,153.57,123.28,155.62,126.62z"/>
	</g>
	<g>
		<path d="M198.38,167.81c0.49,0.49,0.4,1.26-0.27,2.31c-0.67,1.05-1.55,1.91-2.64,2.57c-1.09,0.67-1.88,0.76-2.37,0.27
			c-5.35-4.86-11.3-8.76-17.85-11.7c-7.35,8.6-15.83,15.89-25.44,21.86c-9.61,5.97-19.89,10.34-30.85,13.1
			c-2.1,0.54-3.89,0.94-5.38,1.2c-1.49,0.27-3.32,0.51-5.48,0.74c-2.16,0.22-4.18,0.2-6.05-0.07c-1.87-0.27-3.52-0.78-4.95-1.54
			c-1.52-0.8-2.64-1.76-3.38-2.88c-0.74-1.11-1.06-2.31-0.97-3.58c0.09-1.27,0.39-2.58,0.9-3.94c0.51-1.36,1.34-2.77,2.47-4.25
			s2.29-2.89,3.48-4.25c1.18-1.36,2.56-2.75,4.14-4.18c1.58-1.43,3.01-2.69,4.28-3.78s2.65-2.2,4.14-3.31
			c1.49-1.11,2.64-1.96,3.44-2.54c0.8-0.58,1.58-1.16,2.34-1.74c7.4-5.21,15.51-8.74,24.34-10.56l4.55-41.25
			c0.13-0.94,1.03-2.01,2.67-3.21c1.69-1.2,2.67-1.43,2.94-0.67c0.04,0.18,0.07,0.38,0.07,0.6l-4.88,43.66
			c9.89-1.11,19.48,0.07,28.75,3.54c6.28-9.27,9.92-19.48,10.9-30.62c0.13-2.63,0.13-5.22,0-7.79c-0.13-2.56-0.59-5.08-1.37-7.55
			c-0.78-2.47-1.79-4.72-3.04-6.75c-1.25-2.03-2.9-3.84-4.95-5.45c-2.05-1.61-4.39-2.83-7.02-3.68c-2.41-0.76-4.94-1.19-7.59-1.3
			c-2.65-0.11-5.2,0.03-7.66,0.43s-5.01,1.06-7.69,1.97c-2.67,0.91-5.16,1.91-7.45,2.97c-2.3,1.07-4.69,2.35-7.19,3.84
			s-4.7,2.9-6.62,4.21c-1.92,1.32-3.95,2.75-6.08,4.31c-1.65,1.25-2.59,1.38-2.81,0.4c-0.18-0.98,0.29-2.05,1.4-3.21
			c0.22-0.27,0.47-0.51,0.74-0.74c2.36-1.74,4.62-3.34,6.79-4.81c2.16-1.47,4.65-3.04,7.45-4.71c2.81-1.67,5.5-3.12,8.09-4.35
			c2.58-1.22,5.38-2.35,8.39-3.38c3.01-1.02,5.88-1.75,8.62-2.17c2.74-0.42,5.6-0.54,8.59-0.37c2.99,0.18,5.82,0.74,8.49,1.67
			c3.16,1.12,5.88,2.73,8.16,4.85s4.02,4.48,5.25,7.09c1.23,2.61,2.11,5.49,2.64,8.66c0.54,3.17,0.76,6.26,0.67,9.29
			c-0.09,3.03-0.4,6.11-0.94,9.23c-2.01,10.65-6.15,20.39-12.44,29.22C186.64,158.58,192.86,162.68,198.38,167.81z M152.85,177.23
			c7.31-4.77,13.75-10.54,19.32-17.32c-1.56-0.62-2.94-1.14-4.15-1.54c-6.78-2.32-13.75-3.25-20.93-2.81l-1.2,10.63
			c-0.09,0.98-0.98,2.05-2.67,3.21c-1.65,1.25-2.63,1.47-2.94,0.67c-0.04-0.13-0.04-0.31,0-0.53l1.47-13.3
			c-10.61,2.1-20.12,6.55-28.55,13.37c-5.39,4.15-9.34,8.11-11.83,11.9c-4.23,6.33-2.38,9.94,5.55,10.83c0.18,0,0.36,0.02,0.54,0.07
			c3.7,0.31,7.62,0.11,11.77-0.6c4.15-0.71,8.2-1.85,12.17-3.41c3.97-1.56,7.69-3.25,11.17-5.08
			C146.03,181.49,149.47,179.46,152.85,177.23z"/>
	</g>
	<path class="st8" d="M194.12,171.56l1.8-2.72c0.79-1.2,2.41-1.53,3.61-0.74l0,0c1.2,0.79,1.53,2.41,0.74,3.61l-1.8,2.72
		c-0.79,1.2-2.41,1.53-3.61,0.74l0,0C193.66,174.37,193.33,172.76,194.12,171.56z"/>
</g>
</svg>
